<svg
	xmlns="http://www.w3.org/2000/svg"
	xmlns:xlink="http://www.w3.org/1999/xlink"
	width="294px"
	height="78px"
>
	<path
		fill-rule="evenodd"
		fill="rgb(190, 195, 200)"
		d="M273.237,53.263 L273.237,46.544 L293.521,46.544 L293.521,71.802 C291.345,73.692 288.742,75.068 285.711,75.931 C282.680,76.793 279.687,77.226 276.734,77.226 C273.262,77.226 270.037,76.659 267.058,75.526 C264.078,74.392 261.501,72.625 259.325,70.223 C257.149,67.822 255.439,64.759 254.195,61.035 C252.952,57.311 252.330,52.886 252.330,47.758 C252.330,42.415 253.068,37.869 254.545,34.117 C256.022,30.366 257.965,27.316 260.374,24.969 C262.783,22.621 265.490,20.921 268.496,19.869 C271.500,18.816 274.558,18.290 277.667,18.290 C280.775,18.290 283.508,18.533 285.866,19.018 C288.223,19.504 290.102,20.018 291.501,20.557 L289.325,29.867 C288.029,29.328 286.578,28.909 284.972,28.612 C283.366,28.316 281.319,28.167 278.832,28.167 C276.604,28.167 274.558,28.518 272.692,29.219 C270.827,29.921 269.207,31.068 267.835,32.660 C266.462,34.252 265.399,36.290 264.648,38.772 C263.897,41.255 263.522,44.277 263.522,47.839 C263.522,51.239 263.883,54.167 264.610,56.623 C265.335,59.079 266.345,61.103 267.641,62.694 C268.935,64.287 270.451,65.461 272.187,66.216 C273.923,66.972 275.775,67.349 277.744,67.349 C279.091,67.349 280.412,67.175 281.708,66.823 C283.003,66.473 284.091,65.946 284.972,65.244 L284.972,54.558 L273.237,53.263 ZM216.501,46.544 L212.227,37.638 L211.838,37.638 L213.081,46.544 L213.081,76.092 L202.978,76.092 L202.978,19.018 L210.750,19.018 L231.346,49.215 L235.465,57.877 L235.853,57.877 L234.610,49.215 L234.610,19.423 L244.714,19.423 L244.714,76.497 L236.942,76.497 L216.501,46.544 ZM181.917,19.423 L192.564,19.423 L192.564,76.092 L181.917,76.092 L181.917,19.423 ZM167.151,67.835 C164.975,70.587 162.111,72.801 158.563,74.473 C155.013,76.146 150.622,76.983 145.389,76.983 C144.560,76.983 143.458,76.955 142.086,76.902 C140.713,76.848 139.288,76.781 137.812,76.700 C136.335,76.619 134.923,76.538 133.576,76.457 C132.228,76.376 131.217,76.281 130.545,76.173 L130.545,19.423 C131.633,19.261 132.863,19.127 134.236,19.018 C135.609,18.911 137.021,18.830 138.472,18.776 C139.922,18.722 141.334,18.682 142.708,18.654 C144.080,18.628 145.311,18.614 146.400,18.614 C151.218,18.614 155.337,19.316 158.757,20.719 C162.177,22.123 164.948,24.092 167.073,26.628 C169.197,29.166 170.751,32.188 171.736,35.695 C172.720,39.204 173.213,43.062 173.213,47.272 C173.213,51.105 172.747,54.801 171.814,58.363 C170.881,61.925 169.327,65.082 167.151,67.835 ZM161.400,40.593 C160.984,38.354 160.220,36.343 159.107,34.562 C157.992,32.781 156.476,31.324 154.560,30.190 C152.643,29.057 150.208,28.490 147.254,28.490 C146.114,28.490 144.962,28.518 143.796,28.571 C142.630,28.626 141.762,28.707 141.192,28.814 L141.192,66.782 C141.399,66.837 141.749,66.877 142.242,66.904 C142.733,66.932 143.264,66.958 143.835,66.985 C144.404,67.013 144.948,67.039 145.467,67.066 C145.984,67.094 146.373,67.106 146.633,67.106 C149.637,67.106 152.137,66.554 154.133,65.447 C156.127,64.341 157.708,62.870 158.874,61.035 C160.039,59.200 160.855,57.082 161.322,54.680 C161.788,52.279 162.021,49.810 162.021,47.272 C162.021,45.060 161.814,42.833 161.400,40.593 ZM110.338,63.544 L93.628,63.544 L89.509,76.092 L78.861,76.092 L98.447,19.018 L106.296,19.018 L125.882,76.092 L114.690,76.092 L110.338,63.544 ZM103.965,42.010 L102.333,33.105 L101.944,33.105 L100.312,42.091 L96.348,54.639 L108.006,54.639 L103.965,42.010 ZM55.001,77.226 C51.063,77.226 47.643,76.524 44.742,75.121 C41.840,73.718 39.444,71.721 37.553,69.130 C35.661,66.540 34.250,63.437 33.317,59.820 C32.385,56.205 31.919,52.184 31.919,47.758 C31.919,38.314 33.913,31.040 37.903,25.940 C41.892,20.840 47.591,18.290 55.001,18.290 C58.887,18.290 62.280,18.992 65.183,20.395 C68.084,21.799 70.493,23.795 72.411,26.385 C74.327,28.976 75.753,32.080 76.685,35.695 C77.618,39.312 78.084,43.333 78.084,47.758 C78.084,57.203 76.076,64.475 72.061,69.575 C68.045,74.676 62.358,77.226 55.001,77.226 ZM66.232,40.067 C65.791,37.693 65.105,35.614 64.172,33.833 C63.240,32.052 62.022,30.663 60.519,29.664 C59.016,28.666 57.178,28.167 55.001,28.167 C51.219,28.167 48.291,29.745 46.219,32.902 C44.146,36.060 43.110,41.012 43.110,47.758 C43.110,50.619 43.343,53.250 43.810,55.651 C44.276,58.053 44.988,60.118 45.947,61.844 C46.905,63.572 48.135,64.920 49.639,65.892 C51.141,66.863 52.928,67.349 55.001,67.349 C58.783,67.349 61.711,65.811 63.784,62.735 C65.855,59.658 66.893,54.667 66.893,47.758 C66.893,45.005 66.671,42.443 66.232,40.067 ZM35.338,76.092 L0.908,76.092 L0.908,19.423 L11.555,19.423 L11.555,66.216 L35.338,66.216 L35.338,76.092 Z"
	/>
	<path
		fill-rule="evenodd"
		fill="rgb(166, 0, 0)"
		d="M188.000,-0.000 C191.866,-0.000 195.000,3.134 195.000,7.000 C195.000,10.866 191.866,14.000 188.000,14.000 C184.134,14.000 181.000,10.866 181.000,7.000 C181.000,3.134 184.134,-0.000 188.000,-0.000 Z"
	/>
</svg>
