<svg
	xmlns="http://www.w3.org/2000/svg"
	xmlns:xlink="http://www.w3.org/1999/xlink"
	width="1162px" height="554px"
>
	<path
		fill-rule="evenodd"
		fill="rgb(255, 255, 255)"
		d="M0.000,554.000 L0.000,0.000 L1162.000,0.000 L1162.000,554.000 L0.000,554.000 ZM179.352,210.736 C186.244,205.390 196.175,202.711 209.147,202.711 C222.930,202.711 235.763,204.335 247.658,207.568 C259.547,210.808 268.465,214.398 274.413,218.338 L291.844,169.769 C282.381,164.140 270.359,159.844 255.765,156.888 C241.172,153.932 225.628,152.453 209.147,152.453 C194.820,152.453 181.848,154.143 170.231,157.521 C158.608,160.900 148.544,166.113 140.031,173.148 C131.518,180.189 124.962,188.985 120.370,199.544 C115.772,210.102 113.479,222.561 113.479,236.920 C113.479,253.536 116.652,267.190 123.005,277.887 C129.352,288.590 137.326,297.525 146.922,304.705 C156.512,311.885 166.919,317.942 178.136,322.865 C189.347,327.795 199.754,332.579 209.350,337.225 C218.940,341.870 226.914,347.011 233.267,352.640 C239.614,358.275 242.793,365.594 242.793,374.601 C242.793,386.427 238.398,395.230 229.619,400.997 C220.833,406.771 208.197,409.655 191.716,409.655 C184.685,409.655 177.864,409.094 171.245,407.966 C164.619,406.844 158.336,405.432 152.395,403.742 C146.447,402.053 141.108,400.225 136.382,398.252 C131.651,396.285 127.800,394.451 124.829,392.762 L106.993,442.175 C114.289,446.121 125.640,450.060 141.044,454.000 C156.448,457.940 174.285,459.913 194.554,459.913 C209.958,459.913 224.076,458.078 236.915,454.422 C249.748,450.767 260.693,445.131 269.751,437.529 C278.802,429.927 285.827,420.424 290.830,409.021 C295.828,397.618 298.330,384.038 298.330,368.266 C298.330,352.501 295.150,339.336 288.804,328.778 C282.451,318.220 274.476,309.351 264.886,302.171 C255.290,294.991 244.884,288.867 233.672,283.799 C222.455,278.731 212.048,273.808 202.459,269.018 C192.863,264.233 184.888,259.027 178.541,253.391 C172.188,247.762 169.015,240.721 169.015,232.275 C169.015,223.267 172.461,216.087 179.352,210.736 ZM541.960,158.366 L489.261,158.366 L489.261,345.038 C489.261,366.999 485.474,382.909 477.911,392.762 C470.342,402.620 458.047,407.543 441.022,407.543 C432.369,407.543 424.807,406.487 418.321,404.376 C411.835,402.264 406.425,398.747 402.106,393.817 C397.779,388.895 394.606,382.414 392.579,374.390 C390.552,366.366 389.539,356.586 389.539,345.038 L389.539,158.366 L334.002,158.366 L334.002,356.441 C334.002,424.859 369.942,459.068 441.832,459.068 C456.692,459.068 470.342,456.956 482.775,452.733 C495.203,448.510 505.742,441.897 514.395,432.883 C523.040,423.876 529.799,412.473 534.663,398.674 C539.528,384.882 541.960,368.411 541.960,349.261 L541.960,158.366 ZM591.821,407.543 C582.903,407.543 574.928,405.715 567.904,402.053 L555.742,449.354 C562.501,452.456 570.469,454.845 579.660,456.534 C588.844,458.223 597.357,459.068 605.198,459.068 C617.626,459.068 628.165,456.745 636.818,452.099 C645.463,447.454 652.557,441.264 658.100,433.517 C663.636,425.776 667.626,416.835 670.058,406.699 C672.491,396.563 673.707,385.866 673.707,374.601 L673.707,158.366 L618.170,158.366 L618.170,359.819 C618.170,374.179 616.612,385.727 613.508,394.451 C610.398,403.181 603.171,407.543 591.821,407.543 ZM644.016,67.000 C627.300,67.000 613.750,80.585 613.750,97.344 C613.750,114.102 627.300,127.688 644.016,127.688 C660.731,127.688 674.281,114.102 674.281,97.344 C674.281,80.585 660.731,67.000 644.016,67.000 ZM730.459,454.000 L785.996,454.000 L785.996,158.366 L730.459,158.366 L730.459,454.000 ZM765.187,67.000 C748.446,67.000 734.875,80.585 734.875,97.344 C734.875,114.102 748.446,127.688 765.187,127.688 C781.929,127.688 795.500,114.102 795.500,97.344 C795.500,80.585 781.929,67.000 765.187,67.000 ZM1057.998,158.366 L1005.299,158.366 L1005.299,313.785 L1011.785,358.975 L1009.758,358.975 L988.273,313.785 L880.849,156.254 L840.311,156.254 L840.311,454.000 L893.010,454.000 L893.010,299.848 L886.524,253.391 L888.551,253.391 L910.847,299.848 L1017.460,456.112 L1057.998,456.112 L1057.998,158.366 Z"
	/>
</svg>
