<svg
	xmlns="http://www.w3.org/2000/svg"
	xmlns:xlink="http://www.w3.org/1999/xlink"
	width="500px"
	height="344px"
>
	<path
		fill-rule="evenodd"
		fill="rgb(22, 23, 24)"
		d="M-0.000,-0.000 L500.000,-0.000 L500.000,344.000 L-0.000,344.000 L-0.000,-0.000 Z"
	/>
	<path
		fill-rule="evenodd"
		fill="rgb(39, 41, 43)"
		d="M353.281,213.507 L327.720,175.956 L322.375,164.792 L321.889,164.792 L323.444,175.956 L323.444,213.000 L310.810,213.000 L310.810,141.449 L320.528,141.449 L346.283,179.305 L351.434,190.164 L351.920,190.164 L350.365,179.305 L350.365,141.956 L362.999,141.956 L362.999,213.507 L353.281,213.507 ZM284.473,141.956 L297.788,141.956 L297.788,213.000 L284.473,213.000 L284.473,141.956 ZM267.125,208.078 C265.796,209.939 264.095,211.427 262.023,212.543 C259.948,213.660 257.421,214.218 254.442,214.218 C252.562,214.218 250.521,214.015 248.319,213.609 C246.116,213.203 244.205,212.629 242.585,211.884 L245.501,200.517 C247.185,201.397 249.097,201.836 251.235,201.836 C253.956,201.836 255.689,200.788 256.434,198.690 C257.178,196.593 257.552,193.818 257.552,190.367 L257.552,141.956 L270.867,141.956 L270.867,193.920 C270.867,196.627 270.575,199.197 269.992,201.633 C269.409,204.069 268.452,206.218 267.125,208.078 ZM232.672,207.925 C230.598,210.092 228.071,211.681 225.091,212.696 C222.110,213.710 218.838,214.218 215.275,214.218 C198.040,214.218 189.423,205.997 189.423,189.556 L189.423,141.956 L202.738,141.956 L202.738,186.815 C202.738,189.590 202.981,191.941 203.467,193.869 C203.953,195.797 204.714,197.355 205.751,198.538 C206.787,199.722 208.083,200.567 209.638,201.075 C211.193,201.582 213.007,201.836 215.081,201.836 C219.163,201.836 222.110,200.653 223.925,198.284 C225.738,195.916 226.646,192.093 226.646,186.815 L226.646,141.956 L239.281,141.956 L239.281,187.830 C239.281,192.432 238.698,196.390 237.531,199.705 C236.365,203.021 234.745,205.761 232.672,207.925 ZM157.886,168.547 C160.185,169.698 162.680,170.881 165.369,172.099 C168.057,173.317 170.552,174.789 172.853,176.514 C175.152,178.239 177.064,180.371 178.587,182.908 C180.109,185.445 180.871,188.609 180.871,192.397 C180.871,196.187 180.271,199.451 179.073,202.191 C177.873,204.931 176.189,207.215 174.019,209.042 C171.848,210.869 169.224,212.223 166.147,213.101 C163.069,213.980 159.684,214.421 155.991,214.421 C151.131,214.421 146.855,213.947 143.162,213.000 C139.469,212.053 136.748,211.107 134.998,210.158 L139.274,198.284 C139.987,198.690 140.910,199.131 142.044,199.603 C143.177,200.077 144.457,200.517 145.883,200.923 C147.308,201.329 148.814,201.668 150.403,201.937 C151.989,202.209 153.625,202.343 155.310,202.343 C159.262,202.343 162.291,201.650 164.398,200.263 C166.502,198.877 167.556,196.761 167.556,193.920 C167.556,191.755 166.794,189.996 165.272,188.642 C163.749,187.289 161.837,186.054 159.538,184.938 C157.238,183.821 154.743,182.672 152.055,181.487 C149.365,180.304 146.870,178.848 144.571,177.123 C142.271,175.398 140.359,173.250 138.837,170.678 C137.314,168.108 136.553,164.827 136.553,160.834 C136.553,157.383 137.103,154.389 138.205,151.852 C139.306,149.314 140.878,147.200 142.919,145.508 C144.960,143.818 147.373,142.565 150.160,141.753 C152.945,140.941 156.055,140.535 159.490,140.535 C163.441,140.535 167.167,140.891 170.666,141.601 C174.165,142.311 177.047,143.344 179.316,144.696 L175.137,156.368 C173.711,155.421 171.573,154.559 168.722,153.780 C165.871,153.003 162.794,152.613 159.490,152.613 C156.380,152.613 153.998,153.257 152.346,154.541 C150.694,155.827 149.868,157.553 149.868,159.717 C149.868,161.747 150.629,163.439 152.152,164.792 C153.673,166.146 155.585,167.397 157.886,168.547 Z"
	/>
	<path
		fill-rule="evenodd"
		fill="rgb(166, 0, 0)"
		d="M263.748,120.000 C267.755,120.000 271.004,123.265 271.004,127.292 C271.004,131.319 267.755,134.584 263.748,134.584 C259.740,134.584 256.492,131.319 256.492,127.292 C256.492,123.265 259.740,120.000 263.748,120.000 Z"
	/>
	<path
		fill-rule="evenodd"
		fill="rgb(166, 0, 0)"
		d="M292.798,120.000 C296.810,120.000 300.062,123.265 300.062,127.292 C300.062,131.319 296.810,134.584 292.798,134.584 C288.786,134.584 285.533,131.319 285.533,127.292 C285.533,123.265 288.786,120.000 292.798,120.000 Z"
	/>
</svg>
