<?xml version="1.0" encoding="UTF-8" standalone="no"?>
<!DOCTYPE svg PUBLIC "-//W3C//DTD SVG 1.1//EN" "http://www.w3.org/Graphics/SVG/1.1/DTD/svg11.dtd">
<svg width="100%" height="100%" viewBox="0 0 80 80" version="1.1" xmlns="http://www.w3.org/2000/svg" xmlns:xlink="http://www.w3.org/1999/xlink" xml:space="preserve" xmlns:serif="http://www.serif.com/" style="fill-rule:evenodd;clip-rule:evenodd;stroke-linejoin:round;stroke-miterlimit:2;">
    <g transform="matrix(1,0,0,1,-120,-120)">
        <g transform="matrix(1.18027,0,0,1.18027,-28.8432,-28.8432)">
            <path d="M160,129.23C176.982,129.23 190.77,143.018 190.77,160C190.77,176.982 176.982,190.77 160,190.77C143.018,190.77 129.23,176.982 129.23,160C129.23,143.018 143.018,129.23 160,129.23ZM160,140.528C170.747,140.528 179.472,149.253 179.472,160C179.472,170.747 170.747,179.472 160,179.472C149.253,179.472 140.528,170.747 140.528,160C140.528,149.253 149.253,140.528 160,140.528Z"/>
        </g>
    </g>
</svg>
