<?xml version="1.0" encoding="UTF-8" standalone="no"?>
<!DOCTYPE svg PUBLIC "-//W3C//DTD SVG 1.1//EN" "http://www.w3.org/Graphics/SVG/1.1/DTD/svg11.dtd">
<svg width="100%" height="100%" viewBox="0 0 80 80" version="1.1" xmlns="http://www.w3.org/2000/svg" xmlns:xlink="http://www.w3.org/1999/xlink" xml:space="preserve" xmlns:serif="http://www.serif.com/" style="fill-rule:evenodd;clip-rule:evenodd;stroke-linecap:square;stroke-miterlimit:1;">
    <g transform="matrix(1,0,0,1,-680,-120)">
        <g transform="matrix(1.10141,0,0,1.10141,-64.9032,-16.2258)">
            <circle cx="640" cy="160" r="36.317"/>
        </g>
        <g transform="matrix(1,0,0,1,-40,0)">
            <g transform="matrix(1,0,0,1,120,0)">
                <circle cx="640" cy="160" r="36.317"/>
            </g>
            <g transform="matrix(1,0,0,1,-2,0)">
                <g transform="matrix(0.117788,0,0,0.117788,713.459,131.826)">
                    <path d="M131.942,239.196L191.371,239.196" style="fill:none;stroke:white;stroke-width:14.43px;"/>
                </g>
                <g transform="matrix(0.117788,0,0,0.117788,772.36,131.826)">
                    <path d="M131.942,239.196L191.371,239.196" style="fill:none;stroke:white;stroke-width:14.43px;"/>
                </g>
            </g>
            <g transform="matrix(7.21245e-18,0.117788,-0.117788,7.21245e-18,788.048,170.959)">
                <path d="M131.942,239.196L191.371,239.196" style="fill:none;stroke:white;stroke-width:14.43px;"/>
            </g>
            <g transform="matrix(-8.73859e-17,0.471153,-0.507709,-9.2428e-17,881.442,69.8352)">
                <path d="M131.942,239.196L191.371,239.196" style="fill:none;stroke:white;stroke-width:8.17px;stroke-linejoin:round;stroke-miterlimit:1.5;"/>
            </g>
            <g transform="matrix(0.22531,0.22531,-0.22531,0.22531,784.165,76.3788)">
                <path d="M131.942,239.196L191.371,239.196" style="fill:none;stroke:white;stroke-width:15.69px;stroke-linejoin:round;stroke-miterlimit:1.5;"/>
            </g>
        </g>
    </g>
</svg>
