<?xml version="1.0" encoding="UTF-8" standalone="no"?>
<!DOCTYPE svg PUBLIC "-//W3C//DTD SVG 1.1//EN" "http://www.w3.org/Graphics/SVG/1.1/DTD/svg11.dtd">
<svg width="100%" height="100%" viewBox="0 0 80 80" version="1.1" xmlns="http://www.w3.org/2000/svg" xmlns:xlink="http://www.w3.org/1999/xlink" xml:space="preserve" xmlns:serif="http://www.serif.com/" style="fill-rule:evenodd;clip-rule:evenodd;stroke-linejoin:round;stroke-miterlimit:2;">
    <g transform="matrix(1,0,0,1,-200,-40)">
        <g transform="matrix(0.266667,0,0,0.267717,240,79)">
            <g transform="matrix(1,0,0,1,-150,-127)">
                <clipPath id="_clip1">
                    <rect x="0" y="0" width="300" height="254"/>
                </clipPath>
                <g clip-path="url(#_clip1)">
                    <path d="M202.174,149.793C190.455,149.793 182.609,159.664 182.609,175.846C182.609,192.027 188.417,208.717 202.174,208.412C216.644,208.081 221.866,193.935 221.739,175.846C221.637,159.664 213.867,149.793 202.174,149.793ZM275.62,72.066C277.403,63.314 278.167,32.325 265.302,-0.013C265.302,-0.013 235.751,3.219 191.067,33.851C181.717,31.256 165.846,29.959 150,29.959C134.154,29.959 118.309,31.256 108.908,33.826C64.249,3.219 34.723,-0.013 34.723,-0.013C21.833,32.325 22.469,62.576 24.38,72.066C9.248,88.476 0,108.169 0,135.087C0,252.097 97.215,253.98 121.748,253.98C127.301,253.98 138.332,253.98 150,254.005C161.668,253.98 172.724,253.98 178.252,253.98C202.785,253.98 300,252.097 300,135.087C300,108.169 290.752,88.476 275.62,72.066ZM150.917,240.979L150,240.979C88.502,240.979 40.15,232.252 40.15,172.564C40.15,158.265 45.219,145.01 57.218,133.993C77.242,115.623 111.099,125.343 149.541,125.343L150.459,125.343C188.901,125.343 222.784,115.649 242.807,133.993C254.806,145.01 259.85,158.265 259.85,172.564C259.85,232.252 212.415,240.979 150.917,240.979ZM97.826,149.793C86.133,149.793 78.261,162.921 78.261,179.103C78.261,195.284 86.133,208.412 97.826,208.412C109.545,208.412 117.391,195.284 117.391,179.103C117.391,162.921 109.545,149.793 97.826,149.793Z"/>
                </g>
            </g>
        </g>
    </g>
</svg>
