<?xml version="1.0" encoding="UTF-8" standalone="no"?>
<!DOCTYPE svg PUBLIC "-//W3C//DTD SVG 1.1//EN" "http://www.w3.org/Graphics/SVG/1.1/DTD/svg11.dtd">
<svg width="100%" height="100%" viewBox="0 0 80 80" version="1.1" xmlns="http://www.w3.org/2000/svg" xmlns:xlink="http://www.w3.org/1999/xlink" xml:space="preserve" xmlns:serif="http://www.serif.com/" style="fill-rule:evenodd;clip-rule:evenodd;stroke-linejoin:round;stroke-miterlimit:2;">
    <g transform="matrix(1,0,0,1,-440,-40)">
        <g transform="matrix(0.266667,0,0,0.266667,480,80)">
            <g transform="matrix(1,0,0,1,-150,-150)">
                <path d="M300,300L300,0L0,0L0,300L300,300ZM216.289,116.934L216.289,121.428C216.289,164.093 183.769,213.505 124.34,213.505C106.405,213.505 89.583,207.885 75.01,198.912L82.859,198.912C97.431,198.912 112.017,193.292 123.228,185.432C108.656,185.432 97.445,175.333 92.958,162.979C95.195,162.979 97.445,164.106 98.57,164.106C101.931,164.106 104.181,164.106 107.544,162.979C92.971,159.613 81.76,147.26 81.76,131.541C86.247,133.781 90.734,134.907 96.333,136.033C87.359,128.174 81.76,119.188 81.76,107.961C81.76,102.341 82.885,96.735 86.247,92.242C101.945,111.328 125.491,124.807 152.399,125.921C152.399,123.681 151.274,121.428 151.274,118.061C151.274,100.101 165.847,85.495 183.794,85.495C192.768,85.495 201.729,88.862 207.34,95.595C215.19,94.469 221.913,91.102 227.525,87.735C225.288,95.595 219.677,101.215 212.953,105.695C219.677,104.568 225.288,103.455 232.012,100.075C227.499,106.835 221.9,112.441 216.289,116.934Z"/>
            </g>
        </g>
        <g transform="matrix(1.10141,0,0,1.10141,-56.7903,-16.2258)">
            <circle cx="560" cy="160" r="36.317"/>
        </g>
    </g>
</svg>
