<svg
	xmlns="http://www.w3.org/2000/svg"
	xmlns:xlink="http://www.w3.org/1999/xlink"
	width="228px"
	height="95px"
>
	<path
		fill-rule="evenodd"
		fill="rgb(255, 255, 255)"
		d="M218.281,93.507 L192.720,55.956 L187.375,44.792 L186.889,44.792 L188.444,55.956 L188.444,93.000 L175.810,93.000 L175.810,21.449 L185.528,21.449 L211.283,59.305 L216.434,70.164 L216.920,70.164 L215.365,59.305 L215.365,21.956 L227.999,21.956 L227.999,93.507 L218.281,93.507 ZM149.473,21.956 L162.788,21.956 L162.788,93.000 L149.473,93.000 L149.473,21.956 ZM132.125,88.078 C130.796,89.939 129.095,91.427 127.023,92.543 C124.948,93.660 122.421,94.218 119.442,94.218 C117.562,94.218 115.521,94.015 113.319,93.609 C111.116,93.203 109.205,92.629 107.585,91.884 L110.501,80.517 C112.185,81.397 114.097,81.836 116.235,81.836 C118.956,81.836 120.689,80.788 121.434,78.690 C122.178,76.593 122.552,73.818 122.552,70.367 L122.552,21.956 L135.867,21.956 L135.867,73.920 C135.867,76.627 135.575,79.197 134.992,81.633 C134.409,84.069 133.452,86.218 132.125,88.078 ZM97.672,87.925 C95.598,90.092 93.071,91.681 90.091,92.696 C87.110,93.710 83.838,94.218 80.275,94.218 C63.040,94.218 54.423,85.997 54.423,69.556 L54.423,21.956 L67.738,21.956 L67.738,66.815 C67.738,69.590 67.981,71.941 68.467,73.869 C68.953,75.797 69.714,77.355 70.751,78.538 C71.787,79.722 73.083,80.567 74.638,81.075 C76.193,81.582 78.007,81.836 80.081,81.836 C84.163,81.836 87.110,80.653 88.925,78.284 C90.738,75.916 91.646,72.093 91.646,66.815 L91.646,21.956 L104.281,21.956 L104.281,67.830 C104.281,72.432 103.698,76.390 102.531,79.705 C101.365,83.021 99.745,85.761 97.672,87.925 ZM22.886,48.547 C25.185,49.698 27.680,50.881 30.369,52.099 C33.057,53.317 35.552,54.789 37.853,56.514 C40.152,58.239 42.064,60.371 43.587,62.908 C45.109,65.445 45.871,68.609 45.871,72.397 C45.871,76.187 45.271,79.451 44.073,82.191 C42.873,84.931 41.189,87.215 39.019,89.042 C36.848,90.869 34.224,92.223 31.147,93.101 C28.069,93.980 24.684,94.421 20.991,94.421 C16.131,94.421 11.855,93.947 8.162,93.000 C4.469,92.053 1.748,91.107 -0.002,90.158 L4.274,78.284 C4.987,78.690 5.910,79.131 7.044,79.603 C8.177,80.077 9.457,80.517 10.883,80.923 C12.308,81.329 13.814,81.668 15.403,81.937 C16.989,82.209 18.625,82.343 20.310,82.343 C24.262,82.343 27.291,81.650 29.398,80.263 C31.502,78.877 32.556,76.761 32.556,73.920 C32.556,71.755 31.794,69.996 30.272,68.642 C28.749,67.289 26.837,66.054 24.538,64.938 C22.238,63.821 19.743,62.672 17.055,61.487 C14.365,60.304 11.870,58.848 9.571,57.123 C7.271,55.398 5.359,53.250 3.837,50.678 C2.314,48.108 1.553,44.827 1.553,40.834 C1.553,37.383 2.103,34.389 3.205,31.852 C4.306,29.314 5.878,27.200 7.919,25.508 C9.960,23.818 12.373,22.565 15.160,21.753 C17.945,20.941 21.055,20.535 24.490,20.535 C28.441,20.535 32.167,20.891 35.666,21.601 C39.165,22.311 42.047,23.344 44.316,24.696 L40.137,36.368 C38.711,35.421 36.573,34.559 33.722,33.780 C30.871,33.003 27.794,32.613 24.490,32.613 C21.380,32.613 18.998,33.257 17.346,34.541 C15.694,35.827 14.868,37.553 14.868,39.717 C14.868,41.747 15.629,43.439 17.152,44.792 C18.673,46.146 20.585,47.397 22.886,48.547 Z"
	/>
	<path
		fill-rule="evenodd"
		fill="rgb(166, 0, 0)"
		d="M157.797,14.594 C153.784,14.594 150.531,11.327 150.531,7.297 C150.531,3.267 153.784,-0.000 157.797,-0.000 C161.810,-0.000 165.063,3.267 165.063,7.297 C165.063,11.327 161.810,14.594 157.797,14.594 ZM128.750,14.594 C124.746,14.594 121.500,11.327 121.500,7.297 C121.500,3.267 124.746,-0.000 128.750,-0.000 C132.754,-0.000 136.000,3.267 136.000,7.297 C136.000,11.327 132.754,14.594 128.750,14.594 Z"
	/>
</svg>
