<?xml version="1.0" encoding="UTF-8" standalone="no"?>
<!DOCTYPE svg PUBLIC "-//W3C//DTD SVG 1.1//EN" "http://www.w3.org/Graphics/SVG/1.1/DTD/svg11.dtd">
<svg
	width="100%"
	height="100%"
	viewBox="0 0 105 97"
	version="1.1"
	xmlns="http://www.w3.org/2000/svg"
	xmlns:xlink="http://www.w3.org/1999/xlink"
	xml:space="preserve"
	xmlns:serif="http://www.serif.com/"
	style="fill-rule:evenodd;clip-rule:evenodd;stroke-linejoin:round;stroke-miterlimit:2;"
>
	<path fill="grey" d="M-0.002,25.406c0,-6.966 2.459,-13.523 7.376,-18.44c4.917,-4.507 11.063,-6.966 18.029,-6.966c6.966,0 13.113,2.459 18.03,6.966c4.917,4.917 7.785,12.703 7.785,21.718c0,15.98 -4.507,29.912 -12.702,42.205c-8.196,11.883 -20.079,20.488 -35.65,25.406l-2.868,-2.459c15.161,-12.293 23.357,-27.044 24.586,-43.025c-6.147,0 -12.293,-2.459 -17.21,-6.966c-4.917,-4.917 -7.376,-11.064 -7.376,-18.439Z" style="fill-rule:nonzero;"/>
	<path fill="grey" d="M53.951,25.406c0,-6.966 2.459,-13.523 7.376,-18.44c4.917,-4.507 11.063,-6.966 18.029,-6.966c6.966,0 13.113,2.459 18.03,6.966c4.917,4.917 7.785,12.703 7.785,21.718c0,15.98 -4.507,29.912 -12.702,42.205c-8.196,11.883 -20.079,20.488 -35.65,25.406l-2.868,-2.459c15.161,-12.293 23.357,-27.044 24.586,-43.025c-6.147,0 -12.293,-2.459 -17.21,-6.966c-4.917,-4.917 -7.376,-11.064 -7.376,-18.439Z" style="fill-rule:nonzero;"/>
</svg>
