<svg
 xmlns="http://www.w3.org/2000/svg"
 xmlns:xlink="http://www.w3.org/1999/xlink"
 width="300px" height="300px">
<path fill-rule="evenodd"  fill="rgb(0, 0, 0)"
 d="M300.000,300.000 L300.000,-0.000 L-0.000,-0.000 L-0.000,300.000 L300.000,300.000 ZM231.483,109.052 C231.483,110.452 231.483,111.835 231.483,114.633 C231.483,167.625 191.092,228.996 117.279,228.996 C95.004,228.996 74.110,222.016 56.010,210.871 C58.788,210.871 62.980,210.871 65.759,210.871 C83.858,210.871 101.974,203.891 115.898,194.129 C97.799,194.129 83.875,181.585 78.302,166.242 C81.080,166.242 83.875,167.641 85.272,167.641 C89.447,167.641 92.242,167.641 96.418,166.242 C78.318,162.061 64.394,146.718 64.394,127.194 C69.967,129.976 75.540,131.375 82.494,132.774 C71.348,123.012 64.394,111.851 64.394,97.907 C64.394,90.927 65.791,83.964 69.967,78.383 C89.464,102.089 118.709,118.831 152.130,120.214 C152.130,117.432 150.733,114.633 150.733,110.452 C150.733,88.145 168.833,70.004 191.124,70.004 C202.270,70.004 213.399,74.185 220.369,82.548 C230.118,81.149 238.469,76.968 245.439,72.786 C242.661,82.548 235.691,89.528 227.340,95.093 C235.691,93.693 242.661,92.310 251.012,88.113 C245.407,96.508 238.453,103.472 231.483,109.052 Z"/>
</svg>
