<?xml version="1.0" encoding="UTF-8" standalone="no"?><!DOCTYPE svg PUBLIC "-//W3C//DTD SVG 1.1//EN" "http://www.w3.org/Graphics/SVG/1.1/DTD/svg11.dtd"><svg width="100%" height="100%" viewBox="0 0 300 300" version="1.1" xmlns="http://www.w3.org/2000/svg" xmlns:xlink="http://www.w3.org/1999/xlink" xml:space="preserve" xmlns:serif="http://www.serif.com/" style="fill-rule:evenodd;clip-rule:evenodd;stroke-linejoin:round;stroke-miterlimit:2;"><path d="M300,300l0,-300l-300,0l0,300l300,0Zm-83.711,-183.066l0,4.494c0,42.665 -32.52,92.077 -91.949,92.077c-17.935,0 -34.757,-5.62 -49.33,-14.593l7.849,0c14.572,0 29.158,-5.62 40.369,-13.48c-14.572,0 -25.783,-10.099 -30.27,-22.453c2.237,0 4.487,1.127 5.612,1.127c3.361,0 5.611,0 8.974,-1.127c-14.573,-3.366 -25.784,-15.719 -25.784,-31.438c4.487,2.24 8.974,3.366 14.573,4.492c-8.974,-7.859 -14.573,-16.845 -14.573,-28.072c0,-5.62 1.125,-11.226 4.487,-15.719c15.698,19.086 39.244,32.565 66.152,33.679c0,-2.24 -1.125,-4.493 -1.125,-7.86c0,-17.96 14.573,-32.566 32.52,-32.566c8.974,0 17.935,3.367 23.546,10.1c7.85,-1.126 14.573,-4.493 20.185,-7.86c-2.237,7.86 -7.848,13.48 -14.572,17.96c6.724,-1.127 12.335,-2.24 19.059,-5.62c-4.513,6.76 -10.112,12.366 -15.723,16.859Z"/></svg>