<svg
	xmlns="http://www.w3.org/2000/svg"
	xmlns:xlink="http://www.w3.org/1999/xlink"
	width="302px"
	height="302px"
>
	<path
		fill-rule="evenodd"
		fill="rgb(0, 0, 0)"
		d="M-0.000,302.000 L-0.000,-0.000 L302.000,-0.000 L302.000,302.000 L-0.000,302.000 ZM91.500,122.000 C75.760,122.000 63.000,134.760 63.000,150.500 C63.000,166.240 75.760,179.000 91.500,179.000 C107.240,179.000 120.000,166.240 120.000,150.500 C120.000,134.760 107.240,122.000 91.500,122.000 ZM207.500,122.000 C191.760,122.000 179.000,134.760 179.000,150.500 C179.000,166.240 191.760,179.000 207.500,179.000 C223.240,179.000 236.000,166.240 236.000,150.500 C236.000,134.760 223.240,122.000 207.500,122.000 Z"
	/>
</svg>
