<svg
 xmlns="http://www.w3.org/2000/svg"
 xmlns:xlink="http://www.w3.org/1999/xlink"
 width="300px" height="254px">
<path fill-rule="evenodd"  fill="rgb(0, 0, 0)"
 d="M202.174,149.793 C190.455,149.793 182.609,159.664 182.609,175.846 C182.609,192.027 188.417,208.717 202.174,208.412 C216.644,208.081 221.866,193.935 221.739,175.846 C221.637,159.664 213.867,149.793 202.174,149.793 ZM275.620,72.066 C277.403,63.314 278.167,32.325 265.302,-0.013 C265.302,-0.013 235.751,3.219 191.067,33.851 C181.717,31.256 165.846,29.959 150.000,29.959 C134.154,29.959 118.309,31.256 108.908,33.826 C64.249,3.219 34.723,-0.013 34.723,-0.013 C21.833,32.325 22.469,62.576 24.380,72.066 C9.248,88.476 -0.000,108.169 -0.000,135.087 C-0.000,252.097 97.215,253.980 121.748,253.980 C127.301,253.980 138.332,253.980 150.000,254.005 C161.668,253.980 172.724,253.980 178.252,253.980 C202.785,253.980 300.000,252.097 300.000,135.087 C300.000,108.169 290.752,88.476 275.620,72.066 ZM150.917,240.979 L150.000,240.979 C88.502,240.979 40.150,232.252 40.150,172.564 C40.150,158.265 45.219,145.010 57.218,133.993 C77.242,115.623 111.099,125.343 149.541,125.343 C149.694,125.343 150.331,125.343 150.459,125.343 C188.901,125.343 222.784,115.649 242.807,133.993 C254.806,145.010 259.850,158.265 259.850,172.564 C259.850,232.252 212.415,240.979 150.917,240.979 ZM97.826,149.793 C86.133,149.793 78.261,162.921 78.261,179.103 C78.261,195.284 86.133,208.412 97.826,208.412 C109.545,208.412 117.391,195.284 117.391,179.103 C117.391,162.921 109.545,149.793 97.826,149.793 Z"/>
</svg>
