<svg
	xmlns="http://www.w3.org/2000/svg"
	xmlns:xlink="http://www.w3.org/1999/xlink"
	width="247px"
	height="199px"
>
	<path
		fill-rule="evenodd"
		fill="rgb(22, 23, 24)"
		d="M15.500,92.000 L231.500,92.000 C236.747,92.000 241.000,96.253 241.000,101.500 C241.000,106.747 236.747,111.000 231.500,111.000 C231.500,111.000 226.941,111.000 219.148,111.000 C208.785,111.000 192.703,131.000 174.016,131.000 C152.545,131.000 127.636,111.000 104.013,111.000 C57.234,111.000 15.500,111.000 15.500,111.000 C10.253,111.000 6.000,106.747 6.000,101.500 C6.000,96.253 10.253,92.000 15.500,92.000 Z"
	/>
	<path
		fill-rule="evenodd"
		fill="rgb(22, 23, 24)"
		d="M18.000,117.000 C18.000,117.000 58.010,117.000 103.185,117.000 C127.363,117.000 153.020,137.000 174.815,137.000 C193.344,137.000 209.081,117.000 218.744,117.000 C225.248,117.000 229.000,117.000 229.000,117.000 C238.941,117.000 247.000,125.059 247.000,135.000 C247.000,144.941 238.941,153.000 229.000,153.000 L18.000,153.000 C8.059,153.000 0.000,144.941 0.000,135.000 C0.000,125.059 8.059,117.000 18.000,117.000 Z"
	/>
	<path
		fill-rule="evenodd"
		fill="rgb(22, 23, 24)"
		d="M2.000,161.000 C2.000,180.330 16.261,199.000 33.854,199.000 L213.146,199.000 C230.739,199.000 245.000,180.330 245.000,161.000 C245.000,161.000 188.437,161.000 129.891,161.000 C106.434,161.000 82.660,185.000 62.077,185.000 C59.891,168.812 38.812,161.000 29.589,161.000 C12.691,161.000 2.000,161.000 2.000,161.000 Z"
	/>
	<path
		fill-rule="evenodd"
		fill="rgb(22, 23, 24)"
		d="M2.000,85.000 C2.000,32.533 27.989,0.000 123.500,0.000 C220.017,0.000 245.000,32.533 245.000,85.000 L2.000,85.000 ZM32.125,48.386 C31.333,47.072 28.017,47.677 24.717,49.737 C21.418,51.797 19.386,54.533 20.178,55.847 C20.970,57.162 24.286,56.557 27.586,54.496 C30.885,52.436 32.917,49.700 32.125,48.386 ZM51.096,59.951 C47.336,60.888 44.580,62.861 44.940,64.358 C45.300,65.856 48.639,66.311 52.399,65.375 C56.159,64.439 58.915,62.466 58.555,60.968 C58.196,59.470 54.856,59.015 51.096,59.951 ZM66.689,37.229 C63.128,35.685 59.760,35.584 59.166,37.002 C58.573,38.421 60.979,40.822 64.540,42.366 C68.102,43.909 71.470,44.011 72.063,42.592 C72.656,41.173 70.250,38.772 66.689,37.229 ZM89.787,16.300 C85.985,15.262 82.577,15.640 82.175,17.144 C81.773,18.648 84.530,20.708 88.332,21.746 C92.134,22.784 95.542,22.406 95.944,20.902 C96.346,19.398 93.589,17.338 89.787,16.300 ZM102.032,63.834 C101.240,62.520 97.923,63.125 94.624,65.185 C91.325,67.246 89.292,69.981 90.084,71.296 C90.876,72.610 94.193,72.005 97.492,69.945 C100.791,67.884 102.824,65.148 102.032,63.834 ZM119.029,29.625 C117.845,28.694 115.008,30.460 112.693,33.569 C110.377,36.679 109.460,39.954 110.644,40.885 C111.828,41.817 114.665,40.051 116.980,36.941 C119.296,33.832 120.213,30.556 119.029,29.625 ZM139.787,61.300 C135.985,60.262 132.577,60.640 132.175,62.144 C131.773,63.648 134.530,65.708 138.332,66.746 C142.134,67.784 145.542,67.406 145.944,65.902 C146.346,64.398 143.589,62.338 139.787,61.300 ZM152.096,33.951 C148.336,34.888 145.580,36.861 145.940,38.358 C146.300,39.856 149.639,40.311 153.399,39.375 C157.159,38.439 159.915,36.466 159.555,34.968 C159.196,33.470 155.856,33.015 152.096,33.951 ZM181.029,48.625 C179.845,47.694 177.008,49.460 174.693,52.569 C172.377,55.679 171.460,58.954 172.644,59.885 C173.828,60.817 176.665,59.051 178.980,55.941 C181.296,52.832 182.213,49.556 181.029,48.625 ZM206.689,48.229 C203.128,46.685 199.760,46.584 199.166,48.002 C198.573,49.421 200.979,51.822 204.540,53.366 C208.102,54.909 211.470,55.011 212.063,53.592 C212.656,52.173 210.250,49.772 206.689,48.229 Z"
	/>
</svg>
