<svg
 xmlns="http://www.w3.org/2000/svg"
 xmlns:xlink="http://www.w3.org/1999/xlink"
 width="300px" height="300px">
<path fill-rule="evenodd"  fill="rgb(0, 0, 0)"
 d="M300.000,300.000 L300.000,-0.000 L-0.000,-0.000 L-0.000,300.000 L300.000,300.000 ZM92.857,114.286 L92.857,250.000 L50.000,250.000 L50.000,114.286 L92.857,114.286 ZM50.000,74.786 C50.000,64.786 58.571,57.143 71.428,57.143 C84.286,57.143 92.357,64.786 92.857,74.786 C92.857,84.786 84.857,92.857 71.428,92.857 C58.571,92.857 50.000,84.786 50.000,74.786 ZM250.000,250.000 L207.143,250.000 C207.143,250.000 207.143,183.857 207.143,178.571 C207.143,164.286 200.000,150.000 182.143,149.714 L181.571,149.714 C164.286,149.714 157.143,164.428 157.143,178.571 C157.143,185.071 157.143,250.000 157.143,250.000 L114.286,250.000 L114.286,114.286 L157.143,114.286 L157.143,132.572 C157.143,132.572 170.929,114.286 198.643,114.286 C227.000,114.286 250.000,133.786 250.000,173.286 L250.000,250.000 Z"/>
</svg>
