<svg
 xmlns="http://www.w3.org/2000/svg"
 xmlns:xlink="http://www.w3.org/1999/xlink"
 width="248.06px" height="248.06px">
<path fill-rule="evenodd"  stroke="rgb(0, 0, 0)" stroke-width="14.04px" stroke-linecap="butt" stroke-linejoin="miter" fill="rgb(0, 0, 0)"
 d="M229.408,229.433 C223.272,235.509 213.324,235.509 207.189,229.433 C207.189,229.433 178.101,200.627 154.965,177.714 C139.705,188.353 121.148,194.614 101.114,194.614 C49.147,194.614 7.020,152.619 7.020,100.817 C7.020,49.014 49.147,7.020 101.114,7.020 C153.080,7.020 195.207,49.014 195.207,100.817 C195.207,121.374 188.555,140.373 177.304,155.830 C200.421,178.723 229.408,207.429 229.408,207.429 C235.543,213.505 235.543,223.357 229.408,229.433 ZM101.020,38.020 C66.226,38.020 38.020,66.002 38.020,100.520 C38.020,135.038 66.226,163.020 101.020,163.020 C135.814,163.020 164.020,135.038 164.020,100.520 C164.020,66.002 135.814,38.020 101.020,38.020 Z"/>
</svg>
