<svg
 xmlns="http://www.w3.org/2000/svg"
 xmlns:xlink="http://www.w3.org/1999/xlink"
 width="300px" height="300px">
<path fill-rule="evenodd"  fill="rgb(0, 0, 0)"
 d="M-0.000,300.000 L-0.000,-0.000 L300.000,-0.000 L300.000,300.000 L-0.000,300.000 ZM151.500,239.657 L183.441,239.657 C183.441,174.740 131.006,122.114 66.324,122.114 L66.324,154.171 C113.365,154.171 151.500,192.445 151.500,239.657 ZM87.623,245.000 C102.327,245.000 114.247,233.039 114.247,218.284 C114.247,203.529 102.327,191.567 87.623,191.567 C72.920,191.567 61.000,203.529 61.000,218.284 C61.000,233.039 72.920,245.000 87.623,245.000 ZM66.217,58.000 L66.324,95.400 C145.706,95.400 210.059,159.986 210.059,239.657 L242.000,238.695 C242.000,139.844 164.711,58.000 66.217,58.000 Z"/>
</svg>
