<!-- https://icons8.com/icon/57990/vomiting-unicorn -->
<svg xmlns="http://www.w3.org/2000/svg" x="0px" y="0px"
width="48" height="48"
viewBox="0 0 192 192"
style=" fill:#000000;"><g fill="none" fill-rule="nonzero" stroke="none" stroke-width="1" stroke-linecap="butt" stroke-linejoin="miter" stroke-miterlimit="10" stroke-dasharray="" stroke-dashoffset="0" font-family="none" font-weight="none" font-size="none" text-anchor="none" style="mix-blend-mode: normal"><path d="M0,192v-192h192v192z" fill="none"></path><g id="Layer_1"><path d="M83.976,35.472l-45.14,-25.12l35.44,32.716z" fill="#37474f"></path><g fill="#ecd8d8"><path d="M82.4,45.54c3.348,-9.732 -0.152,-16.152 -0.152,-16.152c-9.792,-9.256 -7.592,-19.388 -7.592,-19.388c0,0 3.512,6.428 13.872,9.552c10.376,3.12 13.888,9.548 13.888,9.548c0,0 2.764,2.632 0.476,8.156c-2.588,6.252 -20.492,8.284 -20.492,8.284z"></path><path d="M139.68,122.28c-15.52,-16.4 -25.8,-47.6 -33.12,-46.52c-7.28,1.08 -8.68,14.24 -25.72,19.28c-6.6,4 0.36,6.76 -9.36,10.88c-1.48,0.6 -3.16,0.88 -5,0.92c-5.52,0.08 -12.16,-1.96 -16.24,-3.48c-1.72,-0.6 -2.96,-1.12 -3.48,-1.36c-0.2,-0.08 -0.32,-0.12 -0.32,-0.12c0,0 -4.08,-7.88 -4.08,-8.96c0,0 -0.6,-1.24 -0.8,-3.04c-0.32,-2.6 0.28,-6.4 4.72,-9.56c14.48,-16.28 20.48,-28.44 20.48,-28.44c0,0 1.52,-9.24 3.64,-11.72c1.68,-1.92 7.48,-6.92 10.04,-9.08c0.76,-0.68 1.24,-1.08 1.24,-1.08c0,0 0.2,-0.2 0.6,-0.56c0.68,-0.64 2.04,-1.68 4.04,-2.72c2.48,-1.32 5.92,-2.68 10.44,-3.28c5.44,-0.8 12.48,-0.56 21.28,1.96c28.6,8.16 57.08,37.12 57.08,37.12c0,0 5.96,52.2 -35.44,59.76z"></path></g><g fill="#c51162"><path d="M132.72,66.26c-0.028,-0.976 -0.044,-1.944 -0.068,-2.896c0.08,4.08 0.22,8.324 0.876,12.632c-5.62,-5.592 -11.476,-13.848 -16.352,-27.4c-3.728,-10.34 -7.868,-16.252 -11.44,-19.68c9.164,8.264 17.108,25.54 26.984,37.344z"></path><path d="M156.252,87.844c-0.048,-1.272 -0.068,-2.52 -0.1,-3.756c0.06,3.556 0.18,7.232 0.632,10.968c-10.94,-7.476 -15.5,-14.648 -18.912,-32.232c-0.864,-4.44 -1.952,-9.04 -3.784,-13.38c-1.788,-4.344 -4.416,-8.296 -7.584,-11.7c16.536,16.2 17.352,41.444 29.748,50.1z"></path><path d="M171.264,94.22c-1.208,3.284 -2.436,6.156 -3.376,8.268c-0.12,-0.196 -0.22,-0.364 -0.324,-0.56c-1.036,-1.828 -1.928,-3.74 -2.704,-5.712c-1.556,-3.968 -5.436,-21.712 -7.268,-26.056c-1.788,-4.344 -4.416,-8.296 -7.584,-11.7c13.188,12.692 11.028,21.992 21.256,35.76z"></path></g><g fill="#ff4081"><path d="M87.496,19.18c0.48,-0.244 0.992,-0.488 1.58,-0.74c37.56,-10.44 80.708,28.092 86.052,44.06c3.068,9.168 -0.364,22.24 -3.864,31.72c-10.228,-13.768 -8.068,-23.072 -21.256,-35.76c2.468,3.888 4.2,8.088 5.076,12.396c0.892,4.32 0.98,8.712 1.068,13.232c0.032,1.236 0.064,2.484 0.1,3.756c-12.396,-8.656 -13.212,-33.9 -29.744,-50.104c2.468,3.888 4.2,8.088 5.076,12.396c0.892,4.32 0.98,8.712 1.068,13.232c0.028,0.952 0.04,1.92 0.068,2.896c-12.46,-14.868 -21.82,-38.412 -34.452,-41.652c-2.184,-1.788 -5.296,-3.716 -9.74,-5.056c-0.368,-0.124 -0.66,-0.26 -1.032,-0.376z"></path><path d="M70.96,27.78c2.212,-1.36 4.096,-2.444 5.804,-3.392c1.1,2.752 2.708,5.644 5.076,8.436l0.016,0.012c-1.692,1.824 -3.752,3.416 -6.296,4.384c-8.624,3.292 -11.36,10.176 -10.616,16.708c-4.224,-6.176 -6.072,-18.72 6.016,-26.148z"></path></g><g fill="#4a6845"><g><path d="M46.76,102c-0.2,-0.08 -0.32,-0.12 -0.32,-0.12c0,0 -4.08,-7.88 -4.08,-8.96c0,0 -0.6,-1.24 -0.8,-3.04c0.04,-0.04 0.08,-0.08 0.16,-0.12c1.76,-0.72 4.16,0.72 5.32,3.2c1,2.24 -0.04,7.88 -0.28,9.04z"></path></g><g><path d="M94.796,37.672c0,0 2.6,-1.452 0.344,-4.72c-17.94,-10.556 -20.484,-22.952 -20.484,-22.952c0,0 -1.852,12.212 7.188,22.824c0,0 4.96,8.14 12.952,4.848z"></path></g></g><path d="M64.08,93.36c-3.12,3.8 -6.12,7.68 -8.92,11.64c-16.28,22.4 -27.76,46.92 -28.28,75h-10.88c0.68,-30.28 15,-53.72 34.32,-76.6c0.32,-0.28 1.16,-0.96 2.24,-1.84c0.36,-0.28 0.76,-0.6 1.16,-0.92c0.32,-0.24 0.68,-0.52 1.04,-0.8c0.2,-0.16 0.4,-0.32 0.6,-0.48c2.04,-1.56 4.16,-3.24 5.6,-4.32c0.92,-0.76 1.56,-1.24 1.64,-1.28c0.12,-0.08 0.28,-0.12 0.4,-0.16c0.36,-0.16 0.72,-0.2 1.08,-0.24z" fill="#3949ab"></path><path d="M67.32,95c-2.76,3.6 -5.24,7.28 -7.52,11.12c-13.28,22.08 -20.12,47.84 -20.44,73.88h-13.32c0.48,-28.24 11.96,-52.88 28.32,-75.28c2.72,-3.76 5.64,-7.48 8.64,-11.12c0.36,-0.16 0.72,-0.2 1.08,-0.24c0.8,-0.04 1.64,0.2 2.36,0.72c0.08,0.04 0.12,0.08 0.2,0.12c0.28,0.24 0.52,0.52 0.68,0.8z" fill="#66bb6a"></path><path d="M67.84,97.16c0,0.12 -0.08,0.68 -0.2,1.56c-1.52,2.56 -2.88,5.2 -4.16,7.96c-10.08,22.08 -12.28,49.36 -12.4,73.32h-13.04c0.32,-26.04 7.2,-52 20.48,-74.16c2.4,-4.08 5.04,-8 7.92,-11.76c0.08,0.04 0.12,0.08 0.2,0.12c0.28,0.24 0.52,0.52 0.68,0.8c0.24,0.36 0.4,0.76 0.48,1.16c0.08,0.32 0.08,0.68 0.04,1z" fill="#fdd835"></path><path d="M67.84,97.16c0,0.12 -0.08,0.68 -0.2,1.56c0,0.12 -0.04,0.28 -0.08,0.4c-0.04,0.16 -0.04,0.36 -0.08,0.56c-0.12,0.76 -0.24,1.6 -0.36,2.56c-0.08,0.4 -0.12,0.84 -0.2,1.28c-0.08,0.52 -0.16,1.04 -0.2,1.56c-0.12,0.6 -0.2,1.16 -0.28,1.76c-6.88,22.2 -6.44,49.16 -6.44,73.16h-10c0.12,-24.04 2.28,-51.28 12.24,-73.44c1.64,-3.64 3.48,-7.12 5.56,-10.4c0.08,0.32 0.08,0.68 0.04,1z" fill="#e64a19"></path><path d="M74.444,57.028c1.604,1.516 4.136,1.444 5.656,-0.16c1.516,-1.604 1.444,-4.136 -0.16,-5.656" fill="#37474f"></path></g></g></svg>
